<svg width="341" height="40" viewBox="0 0 341 40" fill="none" xmlns="http://www.w3.org/2000/svg">
<g filter="url(#filter0_d_1_5)">
<path d="M16.576 9.208V24.312C16.576 29.496 15.232 31.224 12.992 31.224C10.944 31.224 9.856 29.24 9.664 25.528C9.536 22.904 8 20.856 5.056 20.856C1.856 20.856 0.128 23.672 0.704 27.256C1.344 31.864 5.504 35.32 12.16 35.32C20.416 35.32 25.408 32.44 25.408 21.624V9.208C25.408 7.032 26.752 5.048 26.752 3.768C26.752 2.424 24.704 1.784 21.312 1.784H20.672C17.344 1.784 15.296 2.424 15.296 3.768C15.296 5.048 16.576 7.032 16.576 9.208ZM39.3865 26.04H40.9865C44.7625 26.04 45.3385 26.232 46.2345 28.344C46.4265 28.856 46.5545 29.24 46.5545 29.24C47.2585 31.288 45.6585 31.736 45.6585 33.016C45.6585 34.36 48.2825 35 51.6745 35H52.2505C55.6425 35 58.1385 34.36 58.1385 33.016C58.1385 31.736 56.5385 31.288 54.9385 26.36C54.3625 24.696 48.2825 6.712 47.7065 5.176C46.7465 2.424 46.5545 1.848 42.2025 1.784H36.6345C33.2425 1.848 31.5785 2.616 31.5785 3.64C31.5785 4.536 32.8585 5.176 34.6505 5.752C35.6105 6.072 36.1865 6.264 35.4185 9.4L29.2745 27C27.6745 30.904 26.1385 31.736 26.1385 33.016C26.1385 34.36 27.9945 35 30.7465 35H31.1945C33.9465 35 35.7385 34.36 35.7385 33.016C35.7385 31.736 33.6265 30.904 34.3945 28.856L34.7785 27.768C35.4825 26.168 36.1225 26.04 39.3865 26.04ZM43.8025 21.112C43.9945 22.2 43.1625 22.264 40.9225 22.264H39.7705C37.4665 22.264 36.8905 22.264 37.0825 21.112L40.4745 11.448L43.8025 21.112ZM86.4175 22.264V9.208C86.4175 7.032 88.4655 5.048 88.4655 3.768C88.4655 2.424 86.6095 1.784 83.8575 1.784H83.4095C80.6575 1.784 78.8655 2.424 78.8655 3.768C78.8655 5.048 80.9135 7.032 80.9135 9.208V22.264C80.9135 28.024 78.9295 31.288 74.8975 31.288C71.1215 31.288 68.8815 28.92 68.8815 22.264V9.208C68.8815 7.032 70.4175 5.048 70.4175 3.768C70.4175 2.424 68.1775 1.784 64.7855 1.784H64.1455C60.8175 1.784 58.5135 2.424 58.5135 3.768C58.5135 5.048 60.0495 7.032 60.0495 9.208V22.264C60.0495 32.376 66.3215 35.32 73.7455 35.32C82.3855 35.32 86.4175 29.688 86.4175 22.264ZM99.1375 8.952C99.1375 6.84 100.738 4.92 103.554 4.92C105.474 4.92 107.522 6.712 108.098 9.336C108.866 12.472 110.786 14.072 112.962 14.072C116.418 14.072 118.402 11.512 116.93 7.8C115.394 4.216 110.786 1.528 104.77 1.528C96.8335 1.528 90.8175 5.24 90.8175 11.448C90.8175 16.312 94.9135 19.192 100.61 20.92C107.842 22.968 110.658 24.376 110.658 26.936C110.658 29.816 107.458 31.416 104.642 31.416C101.378 31.416 98.4335 29.496 97.9855 26.104C97.5375 22.712 95.6815 21.432 92.8015 21.624C89.4095 21.88 87.9375 24.952 89.4095 28.728C91.0095 32.44 96.3215 35.384 103.682 35.384C112.13 35.384 119.362 32.12 119.362 25.528C119.362 21.176 115.778 17.464 107.202 15.16C100.994 13.496 99.1375 11.512 99.1375 8.952ZM122.362 27.576C122.362 29.752 120.826 31.736 120.826 33.016C120.826 34.36 123.066 35 126.458 35H140.602C144.314 35 147.066 36.856 148.282 31.16C149.306 26.104 149.69 23.864 148.41 23.48C147.258 23.096 145.978 23.8 144.442 26.36C143.098 28.536 141.242 30.84 138.682 31.096C133.306 31.608 131.194 30.392 131.194 27.576V22.52C131.45 20.984 132.602 20.408 134.65 20.408C136.442 20.408 137.53 21.24 138.17 22.648C139.002 24.44 139.834 25.08 140.474 25.08C141.498 25.08 142.202 23.8 142.202 18.616C142.202 13.368 141.498 12.088 140.474 12.024C139.834 12.024 139.002 12.728 138.17 14.584C137.466 16.056 136.506 16.76 134.65 16.76C132.602 16.76 131.45 16.632 131.194 15.16V9.208C131.194 6.392 132.794 5.176 138.106 5.688C140.666 5.944 141.498 7.736 142.906 9.848C144.634 12.28 145.786 12.856 146.874 12.472C148.154 12.088 147.898 10.04 146.682 5.048C145.594 0.503998 143.674 1.784 139.962 1.784H126.458C123.066 1.784 120.826 2.424 120.826 3.768C120.826 5.048 122.362 7.032 122.362 9.208V27.576ZM155.059 1.784C152.307 1.784 150.451 2.424 150.451 3.768C150.451 5.048 152.563 7.032 152.563 9.208V27.576C152.563 29.752 150.451 31.736 150.451 33.016C150.451 34.36 152.307 35 155.059 35H155.507C158.259 35 160.115 34.36 160.115 33.016C160.115 31.736 158.003 29.752 158.003 27.576V15.16C162.419 20.728 168.179 28.152 171.315 31.992C172.659 33.656 173.747 35 175.219 35C176.883 35 177.651 33.464 177.651 31.608V9.208C177.651 7.032 179.699 5.048 179.699 3.768C179.699 2.424 177.907 1.784 175.155 1.784H174.707C171.955 1.784 170.099 2.424 170.099 3.768C170.099 5.048 172.211 7.032 172.211 9.208V18.936L161.843 5.688C159.155 2.296 157.939 1.784 155.059 1.784ZM195.783 20.408H196.871C199.239 20.408 200.327 21.112 200.455 23.096V27.576C200.455 29.752 198.919 31.736 198.919 33.016C198.919 34.36 201.159 35 204.551 35H205.191C208.519 35 210.823 34.36 210.823 33.016C210.823 31.736 209.287 29.752 209.287 27.576V9.208C209.287 7.032 210.823 5.048 210.823 3.768C210.823 2.424 208.519 1.784 205.191 1.784H204.551C201.159 1.784 198.919 2.424 198.919 3.768C198.919 5.048 200.455 7.032 200.455 9.208V14.136V14.264C200.455 16.568 199.367 16.76 196.871 16.76H195.783C193.415 16.76 192.263 16.568 192.263 14.264V14.008V9.208C192.263 7.032 193.863 5.048 193.863 3.768C193.863 2.424 191.559 1.784 188.231 1.784H187.591C184.199 1.784 181.895 2.424 181.895 3.768C181.895 5.048 183.495 7.032 183.495 9.208V27.576C183.495 29.752 181.895 31.736 181.895 33.016C181.895 34.36 184.199 35 187.591 35H188.231C191.559 35 193.863 34.36 193.863 33.016C193.863 31.736 192.263 29.752 192.263 27.576V23.608V23.416V23.096C192.327 21.112 193.543 20.408 195.783 20.408ZM228.008 1.464C219.432 1.464 212.264 7.672 212.264 18.424C212.264 29.112 219.432 35.384 228.008 35.384C236.584 35.384 243.752 29.112 243.752 18.424C243.752 7.672 236.584 1.464 228.008 1.464ZM230.696 31.864C227.944 32.568 223.592 23.672 222.888 14.008C222.504 9.016 223.464 5.432 225.192 4.984C227.56 4.344 230.888 9.592 232.424 17.336C233.896 24.76 233 31.288 230.696 31.864ZM246.424 9.208V27.576C246.424 29.752 244.889 31.736 244.889 33.016C244.889 34.36 247.193 35 250.521 35H264.665C268.377 35 271.129 36.856 272.345 31.16C273.369 26.104 273.817 23.864 272.473 23.48C271.385 23.096 270.105 23.8 268.505 26.36C267.225 28.536 265.305 30.84 262.745 31.096C257.753 31.544 255.321 30.84 255.321 27.576V9.208C255.321 7.032 256.793 5.048 256.793 3.768C256.793 2.424 254.553 1.784 251.225 1.784H250.585C247.193 1.784 244.953 2.424 244.953 3.768C244.953 5.048 246.424 7.032 246.424 9.208ZM276.049 27.576C276.049 29.752 274.514 31.736 274.514 33.016C274.514 34.36 276.754 35 280.146 35H294.29C298.002 35 300.754 36.856 301.97 31.16C302.994 26.104 303.378 23.864 302.098 23.48C300.946 23.096 299.666 23.8 298.13 26.36C296.786 28.536 294.93 30.84 292.37 31.096C286.994 31.608 284.882 30.392 284.882 27.576V22.52C285.138 20.984 286.29 20.408 288.338 20.408C290.13 20.408 291.218 21.24 291.858 22.648C292.69 24.44 293.522 25.08 294.162 25.08C295.186 25.08 295.89 23.8 295.89 18.616C295.89 13.368 295.186 12.088 294.162 12.024C293.522 12.024 292.69 12.728 291.858 14.584C291.154 16.056 290.194 16.76 288.338 16.76C286.29 16.76 285.138 16.632 284.882 15.16V9.208C284.882 6.392 286.482 5.176 291.794 5.688C294.354 5.944 295.186 7.736 296.594 9.848C298.322 12.28 299.474 12.856 300.562 12.472C301.842 12.088 301.586 10.04 300.37 5.048C299.282 0.503998 297.362 1.784 293.65 1.784H280.146C276.754 1.784 274.514 2.424 274.514 3.768C274.514 5.048 276.049 7.032 276.049 9.208V27.576ZM316.491 1.784H309.707C306.379 1.784 304.139 2.424 304.139 3.768C304.139 5.048 305.611 7.032 305.611 9.208V27.576C305.611 29.752 304.139 31.736 304.139 33.016C304.139 34.36 306.379 35 309.707 35H310.347C313.739 35 315.979 34.36 315.979 33.016C315.979 31.736 314.443 29.752 314.443 27.576V25.592C314.443 23.416 314.699 22.776 317.067 22.648C318.923 22.648 320.523 25.656 323.339 30.392C325.131 33.464 328.203 35 332.619 35C336.395 35 338.379 33.912 338.507 32.632C338.635 31.864 337.931 31.288 336.907 30.904C335.755 30.456 334.347 30.008 332.491 27.704C330.891 25.784 329.227 23.288 327.627 20.92C331.531 19.128 333.323 16.12 333.323 12.28C333.323 5.944 327.755 1.784 316.491 1.784ZM317.131 18.936C315.211 18.936 314.443 18.424 314.443 16.44V9.208C314.443 6.328 314.699 5.688 316.939 5.688C322.378 5.688 324.299 9.272 324.299 12.536C324.299 15.736 322.059 18.936 317.131 18.936Z" fill="#E96A6A"/>
<path d="M9.664 25.528L8.16578 25.6011L8.166 25.6055L9.664 25.528ZM0.704 27.256L2.18974 27.0496L2.18754 27.0338L2.185 27.018L0.704 27.256ZM15.076 9.208V24.312H18.076V9.208H15.076ZM15.076 24.312C15.076 26.8348 14.7381 28.2377 14.321 28.9688C14.1302 29.3035 13.9396 29.4675 13.7731 29.5592C13.6004 29.6544 13.358 29.724 12.992 29.724V32.724C13.746 32.724 14.5116 32.5776 15.2209 32.1868C15.9364 31.7925 16.5018 31.2005 16.927 30.4552C17.7419 29.0263 18.076 26.9732 18.076 24.312H15.076ZM12.992 29.724C12.5748 29.724 12.2536 29.5789 11.9324 29.0203C11.5543 28.3627 11.2534 27.2174 11.162 25.4505L8.166 25.6055C8.26661 27.5506 8.60575 29.2533 9.33164 30.5157C10.1144 31.8771 11.3612 32.724 12.992 32.724V29.724ZM11.1622 25.4549C11.0855 23.8827 10.5806 22.3525 9.52304 21.1958C8.44094 20.0123 6.90263 19.356 5.056 19.356V22.356C6.15337 22.356 6.85506 22.7237 7.30896 23.2202C7.78743 23.7435 8.11448 24.5493 8.16578 25.6011L11.1622 25.4549ZM5.056 19.356C2.96542 19.356 1.25688 20.302 0.211926 21.886C-0.802868 23.4242 -1.10916 25.4272 -0.776995 27.494L2.185 27.018C1.94116 25.5008 2.21087 24.3038 2.71607 23.538C3.19112 22.818 3.94658 22.356 5.056 22.356V19.356ZM-0.781738 27.4624C-0.0106606 33.0141 4.97931 36.82 12.16 36.82V33.82C6.02869 33.82 2.69866 30.7139 2.18974 27.0496L-0.781738 27.4624ZM12.16 36.82C16.4042 36.82 20.1884 36.0922 22.8888 33.6381C25.6185 31.1575 26.908 27.2254 26.908 21.624H23.908C23.908 26.8386 22.7015 29.7545 20.8712 31.4179C19.0116 33.1078 16.1718 33.82 12.16 33.82V36.82ZM26.908 21.624V9.208H23.908V21.624H26.908ZM26.908 9.208C26.908 8.40487 27.158 7.58077 27.4904 6.66266C27.643 6.24117 27.834 5.74292 27.9727 5.30267C28.1111 4.86325 28.252 4.32244 28.252 3.768H25.252C25.252 3.85355 25.2249 4.04075 25.1113 4.40133C24.998 4.76107 24.853 5.13483 24.6696 5.64134C24.33 6.57923 23.908 7.83513 23.908 9.208H26.908ZM28.252 3.768C28.252 2.11151 26.9259 1.25092 25.8001 0.8564C24.6257 0.444864 23.0658 0.283997 21.312 0.283997V3.284C22.9502 3.284 24.1103 3.44313 24.8079 3.6876C25.5541 3.94908 25.252 4.08048 25.252 3.768H28.252ZM21.312 0.283997H20.672V3.284H21.312V0.283997ZM20.672 0.283997C18.9481 0.283997 17.4033 0.445206 16.2361 0.857738C15.1177 1.25306 13.796 2.11476 13.796 3.768H16.796C16.796 4.07724 16.4983 3.94694 17.2359 3.68626C17.9247 3.44279 19.0679 3.284 20.672 3.284V0.283997ZM13.796 3.768C13.796 4.31137 13.9277 4.84436 14.0593 5.28302C14.1909 5.72189 14.3721 6.21808 14.5179 6.64099C14.8342 7.5582 15.076 8.39157 15.076 9.208H18.076C18.076 7.84843 17.6778 6.6018 17.3541 5.66301C17.1799 5.15792 17.0411 4.7821 16.9327 4.42098C16.8243 4.05964 16.796 3.86462 16.796 3.768H13.796ZM46.2345 28.344L47.639 27.8173L47.6278 27.7875L47.6154 27.7582L46.2345 28.344ZM46.5545 29.24L45.1314 29.7144L45.136 29.7276L46.5545 29.24ZM54.9385 26.36L56.3652 25.8968L56.3607 25.883L56.356 25.8693L54.9385 26.36ZM47.7065 5.176L46.2902 5.67006L46.2959 5.68644L46.302 5.70268L47.7065 5.176ZM42.2025 1.784L42.2246 0.284159L42.2135 0.283997H42.2025V1.784ZM36.6345 1.784V0.283997H36.6203L36.6062 0.284264L36.6345 1.784ZM34.6505 5.752L35.1248 4.32897L35.1172 4.32642L35.1095 4.32396L34.6505 5.752ZM35.4185 9.4L36.8347 9.89438L36.8584 9.82657L36.8754 9.7568L35.4185 9.4ZM29.2745 27L30.6625 27.5688L30.6776 27.532L30.6907 27.4944L29.2745 27ZM34.3945 28.856L35.799 29.3827L35.8041 29.369L35.809 29.3552L34.3945 28.856ZM34.7785 27.768L33.4055 27.1639L33.3828 27.2155L33.364 27.2688L34.7785 27.768ZM43.8025 21.112L45.2797 20.8513L45.2592 20.7351L45.2208 20.6236L43.8025 21.112ZM37.0825 21.112L35.6672 20.6152L35.6242 20.7375L35.6029 20.8654L37.0825 21.112ZM40.4745 11.448L41.8928 10.9596L40.488 6.88037L39.0592 10.9512L40.4745 11.448ZM39.3865 27.54H40.9865V24.54H39.3865V27.54ZM40.9865 27.54C41.9309 27.54 42.6176 27.5526 43.1462 27.5976C43.6786 27.6429 43.9495 27.7144 44.0996 27.7787C44.2507 27.8434 44.425 27.9195 44.8536 28.9298L47.6154 27.7582C47.148 26.6565 46.5863 25.5806 45.2814 25.0213C44.7035 24.7736 44.0664 24.6651 43.4008 24.6084C42.7314 24.5514 41.9301 24.54 40.9865 24.54V27.54ZM44.83 28.8707C44.9213 29.1142 44.9975 29.3276 45.0507 29.4795C45.0773 29.5553 45.0979 29.6155 45.1117 29.656C45.1186 29.6763 45.1238 29.6916 45.1272 29.7015C45.1288 29.7064 45.13 29.71 45.1307 29.7122C45.1311 29.7133 45.1314 29.714 45.1315 29.7143C45.1315 29.7145 45.1316 29.7146 45.1316 29.7146C45.1316 29.7146 45.1316 29.7146 45.1315 29.7146C45.1315 29.7145 45.1315 29.7145 45.1315 29.7145C45.1315 29.7144 45.1315 29.7144 45.1315 29.7144C45.1315 29.7144 45.1315 29.7143 46.5545 29.24C47.9775 28.7657 47.9775 28.7656 47.9775 28.7656C47.9775 28.7656 47.9775 28.7655 47.9775 28.7655C47.9775 28.7654 47.9774 28.7654 47.9774 28.7653C47.9774 28.7652 47.9773 28.765 47.9772 28.7648C47.9771 28.7644 47.977 28.764 47.9768 28.7634C47.9764 28.7623 47.9759 28.7608 47.9753 28.7589C47.974 28.7552 47.9723 28.7501 47.9701 28.7435C47.9657 28.7304 47.9594 28.7117 47.9513 28.688C47.9351 28.6405 47.9118 28.5727 47.8823 28.4885C47.8235 28.3204 47.7397 28.0858 47.639 27.8173L44.83 28.8707ZM45.136 29.7276C45.2471 30.0508 45.2384 30.2203 45.2272 30.2977C45.215 30.3812 45.1823 30.4784 45.0791 30.6529C45.0223 30.749 44.9617 30.8407 44.8713 30.9792C44.7897 31.1043 44.6818 31.2709 44.5816 31.4539C44.3716 31.8378 44.1585 32.3579 44.1585 33.016H47.1585C47.1585 33.0148 47.1585 33.0152 47.1584 33.0161C47.1583 33.0169 47.1585 33.0147 47.1605 33.0084C47.1647 32.9947 47.1771 32.9604 47.2134 32.8941C47.2522 32.8231 47.3028 32.7427 47.384 32.6183C47.4563 32.5073 47.5627 32.347 47.6619 32.1791C47.8708 31.8256 48.106 31.3468 48.1958 30.7303C48.2866 30.1077 48.2139 29.4532 47.973 28.7524L45.136 29.7276ZM44.1585 33.016C44.1585 33.9099 44.6175 34.5925 45.1616 35.0456C45.6766 35.4746 46.323 35.7542 46.9586 35.9473C48.2409 36.3367 49.912 36.5 51.6745 36.5V33.5C50.045 33.5 48.7081 33.3433 47.8304 33.0767C47.386 32.9418 47.1644 32.8094 47.0814 32.7404C47.0275 32.6955 47.1585 32.7941 47.1585 33.016H44.1585ZM51.6745 36.5H52.2505V33.5H51.6745V36.5ZM52.2505 36.5C54.0115 36.5 55.657 36.3371 56.9145 35.9435C57.5393 35.748 58.1742 35.4636 58.6785 35.026C59.2147 34.5608 59.6385 33.8816 59.6385 33.016H56.6385C56.6385 32.8224 56.7503 32.7272 56.7125 32.76C56.6428 32.8204 56.4417 32.948 56.0185 33.0805C55.18 33.3429 53.8815 33.5 52.2505 33.5V36.5ZM59.6385 33.016C59.6385 32.3371 59.4115 31.8043 59.1581 31.3713C58.9531 31.0211 58.6128 30.5588 58.3814 30.2162C57.852 29.4327 57.1176 28.2143 56.3652 25.8968L53.5118 26.8232C54.3594 29.4337 55.225 30.9033 55.8956 31.8958C56.2642 32.4412 56.4239 32.6389 56.5689 32.8867C56.6222 32.9776 56.6368 33.0182 56.6399 33.0278C56.6411 33.0315 56.6403 33.0297 56.6394 33.0242C56.6385 33.0185 56.6385 33.0151 56.6385 33.016H59.6385ZM56.356 25.8693C55.7965 24.2531 49.6951 6.2069 49.111 4.64931L46.302 5.70268C46.8699 7.2171 52.9285 25.1389 53.521 26.8507L56.356 25.8693ZM49.1228 4.68194C48.8943 4.02678 48.6687 3.37038 48.3951 2.82318C48.103 2.23886 47.7095 1.67698 47.0839 1.24121C46.4759 0.817664 45.772 0.599613 45.0068 0.473853C44.2481 0.349168 43.3293 0.300406 42.2246 0.284159L42.1804 3.28383C43.2517 3.29959 43.9889 3.34683 44.5203 3.43414C45.045 3.52038 45.2651 3.63033 45.3691 3.70279C45.4555 3.76301 45.562 3.86514 45.7119 4.16482C45.8803 4.50162 46.0387 4.94922 46.2902 5.67006L49.1228 4.68194ZM42.2025 0.283997H36.6345V3.284H42.2025V0.283997ZM36.6062 0.284264C34.8322 0.317737 33.3662 0.534076 32.2889 0.954741C31.2953 1.34271 30.0785 2.15622 30.0785 3.64H33.0785C33.0785 4.09978 32.6937 4.01729 33.3801 3.74925C33.9828 3.51392 35.0448 3.31426 36.6628 3.28373L36.6062 0.284264ZM30.0785 3.64C30.0785 4.89005 30.9795 5.66561 31.6408 6.08379C32.3523 6.53368 33.2705 6.88401 34.1915 7.18004L35.1095 4.32396C34.2385 4.04399 33.6207 3.78632 33.2442 3.54821C32.8175 3.27839 33.0785 3.28595 33.0785 3.64H30.0785ZM34.1762 7.17502C34.4616 7.27017 34.4889 7.28829 34.4814 7.28355C34.3989 7.2313 34.3042 7.12273 34.2667 7.01552C34.2515 6.97211 34.2935 7.0605 34.2628 7.42636C34.2331 7.77968 34.1449 8.29462 33.9616 9.0432L36.8754 9.7568C37.0761 8.93738 37.2039 8.25232 37.2522 7.67763C37.2995 7.1155 37.2815 6.54788 37.0983 6.02447C36.6549 4.75772 35.4989 4.45365 35.1248 4.32897L34.1762 7.17502ZM34.0023 8.90562L27.8583 26.5056L30.6907 27.4944L36.8347 9.89438L34.0023 8.90562ZM27.8865 26.4312C27.1428 28.2458 26.4232 29.332 25.8674 30.1466C25.6017 30.5361 25.2967 30.9701 25.078 31.3828C24.84 31.8321 24.6385 32.3695 24.6385 33.016H27.6385C27.6385 33.0113 27.6384 33.0013 27.6463 32.9748C27.6556 32.9433 27.6772 32.885 27.729 32.7872C27.8483 32.5619 28.0273 32.3039 28.3456 31.8374C28.9578 30.94 29.8062 29.6582 30.6625 27.5688L27.8865 26.4312ZM24.6385 33.016C24.6385 34.5698 25.775 35.467 26.8463 35.9018C27.915 36.3357 29.2905 36.5 30.7465 36.5V33.5C29.4505 33.5 28.522 33.3443 27.9747 33.1222C27.43 32.901 27.6385 32.8062 27.6385 33.016H24.6385ZM30.7465 36.5H31.1945V33.5H30.7465V36.5ZM31.1945 36.5C32.6492 36.5 34.0142 36.3361 35.0724 35.8979C36.1509 35.4512 37.2385 34.5448 37.2385 33.016H34.2385C34.2385 33.0163 34.2385 33.0106 34.2403 33.0002C34.2422 32.9896 34.2454 32.9771 34.2503 32.964C34.2609 32.9354 34.2727 32.9214 34.2711 32.9233C34.2613 32.9348 34.1785 33.021 33.9246 33.1261C33.3988 33.3439 32.4918 33.5 31.1945 33.5V36.5ZM37.2385 33.016C37.2385 32.2723 36.9286 31.687 36.6831 31.3042C36.5577 31.1087 36.4217 30.9255 36.3115 30.7782C36.1918 30.6183 36.0997 30.4971 36.0118 30.3702C35.8388 30.1203 35.7686 29.9665 35.7413 29.8494C35.7215 29.7642 35.7063 29.6298 35.799 29.3827L32.99 28.3293C32.6987 29.1062 32.6595 29.8438 32.8197 30.5306C32.9724 31.1855 33.2862 31.7037 33.5452 32.0778C33.6733 32.2629 33.8092 32.4417 33.91 32.5763C34.0203 32.7235 34.0973 32.8293 34.1579 32.9238C34.2844 33.121 34.2385 33.1197 34.2385 33.016H37.2385ZM35.809 29.3552L36.193 28.2672L33.364 27.2688L32.98 28.3568L35.809 29.3552ZM36.1515 28.3721C36.3039 28.0257 36.4014 27.883 36.4592 27.8178C36.4901 27.7829 36.5191 27.7548 36.6226 27.7182C36.9825 27.5909 37.6624 27.54 39.3865 27.54V24.54C37.8466 24.54 36.5745 24.5531 35.6224 24.8898C35.0699 25.0852 34.6029 25.3891 34.2138 25.8282C33.8516 26.237 33.6051 26.7103 33.4055 27.1639L36.1515 28.3721ZM42.3253 21.3727C42.3465 21.4924 42.2843 21.3051 42.4291 21.0374C42.5913 20.7375 42.8312 20.6628 42.8075 20.6705C42.7642 20.6847 42.6129 20.7186 42.2562 20.7396C41.9159 20.7597 41.485 20.764 40.9225 20.764V23.764C41.48 23.764 41.9931 23.7603 42.4328 23.7344C42.8561 23.7094 43.3208 23.6593 43.7415 23.5215C44.1818 23.3772 44.7337 23.0825 45.0679 22.4646C45.3847 21.8789 45.3545 21.2756 45.2797 20.8513L42.3253 21.3727ZM40.9225 20.764H39.7705V23.764H40.9225V20.764ZM39.7705 20.764C39.1809 20.764 38.7543 20.7636 38.4234 20.7477C38.0683 20.7307 37.9736 20.6998 37.9897 20.7055C38.0148 20.7144 38.1112 20.7518 38.2238 20.8494C38.3467 20.956 38.4402 21.0922 38.4955 21.2343C38.5846 21.4635 38.5246 21.5835 38.5621 21.3586L35.6029 20.8654C35.5444 21.2165 35.4844 21.7685 35.6995 22.3217C35.9623 22.9975 36.4967 23.3599 36.9913 23.5345C37.4154 23.6842 37.8847 23.7253 38.2796 23.7443C38.6987 23.7644 39.2081 23.764 39.7705 23.764V20.764ZM38.4978 21.6088L41.8899 11.9448L39.0592 10.9512L35.6672 20.6152L38.4978 21.6088ZM39.0562 11.9364L42.3842 21.6004L45.2208 20.6236L41.8928 10.9596L39.0562 11.9364ZM87.9175 22.264V9.208H84.9175V22.264H87.9175ZM87.9175 9.208C87.9175 8.54776 88.237 7.8152 88.7549 6.87662C88.9816 6.46567 89.2813 5.95215 89.4978 5.50109C89.708 5.0631 89.9655 4.44281 89.9655 3.768H86.9655C86.9655 3.73318 86.967 3.8409 86.7932 4.2029C86.6257 4.55185 86.4134 4.91033 86.1281 5.42738C85.622 6.3448 84.9175 7.69224 84.9175 9.208H87.9175ZM89.9655 3.768C89.9655 2.21424 88.829 1.31703 87.7577 0.882149C86.689 0.448334 85.3135 0.283997 83.8575 0.283997V3.284C85.1535 3.284 86.082 3.43966 86.6293 3.66185C87.174 3.88297 86.9655 3.97776 86.9655 3.768H89.9655ZM83.8575 0.283997H83.4095V3.284H83.8575V0.283997ZM83.4095 0.283997C81.9548 0.283997 80.5898 0.447881 79.5316 0.886144C78.4531 1.33277 77.3655 2.23922 77.3655 3.768H80.3655C80.3655 3.76767 80.3655 3.7734 80.3637 3.78384C80.3618 3.79439 80.3586 3.80686 80.3537 3.82C80.3431 3.84857 80.3313 3.8626 80.3329 3.86073C80.3427 3.8492 80.4255 3.76303 80.6794 3.65785C81.2052 3.44011 82.1122 3.284 83.4095 3.284V0.283997ZM77.3655 3.768C77.3655 4.44281 77.623 5.0631 77.8332 5.50109C78.0497 5.95215 78.3494 6.46567 78.5761 6.87662C79.094 7.8152 79.4135 8.54776 79.4135 9.208H82.4135C82.4135 7.69224 81.709 6.3448 81.2029 5.42738C80.9176 4.91033 80.7053 4.55185 80.5378 4.2029C80.364 3.8409 80.3655 3.73318 80.3655 3.768H77.3655ZM79.4135 9.208V22.264H82.4135V9.208H79.4135ZM79.4135 22.264C79.4135 25.0141 78.9325 26.9317 78.1604 28.1176C77.4528 29.2045 76.4354 29.788 74.8975 29.788V32.788C77.3916 32.788 79.3822 31.7395 80.6746 29.7544C81.9025 27.8683 82.4135 25.2739 82.4135 22.264H79.4135ZM74.8975 29.788C73.3543 29.788 72.3666 29.3281 71.6881 28.3918C70.9329 27.3497 70.3815 25.4786 70.3815 22.264H67.3815C67.3815 25.7054 67.9501 28.3463 69.2589 30.1522C70.6444 32.0639 72.6647 32.788 74.8975 32.788V29.788ZM70.3815 22.264V9.208H67.3815V22.264H70.3815ZM70.3815 9.208C70.3815 8.44449 70.6541 7.64732 71.0355 6.72553C71.2084 6.3078 71.429 5.80408 71.5888 5.36008C71.7475 4.91925 71.9175 4.35554 71.9175 3.768H68.9175C68.9175 3.82045 68.8955 3.98475 68.7662 4.34392C68.638 4.69992 68.4746 5.0682 68.2635 5.57847C67.8769 6.51268 67.3815 7.79551 67.3815 9.208H70.3815ZM71.9175 3.768C71.9175 2.04948 70.4494 1.21618 69.3478 0.848973C68.1385 0.445855 66.5428 0.283997 64.7855 0.283997V3.284C66.4202 3.284 67.6405 3.44214 68.3992 3.69502C69.2656 3.98382 68.9175 4.14252 68.9175 3.768H71.9175ZM64.7855 0.283997H64.1455V3.284H64.7855V0.283997ZM64.1455 0.283997C62.4171 0.283997 60.8245 0.446476 59.6106 0.847829C58.5238 1.20717 57.0135 2.03316 57.0135 3.768H60.0135C60.0135 4.15884 59.6552 3.99283 60.5524 3.69617C61.3226 3.44152 62.5459 3.284 64.1455 3.284V0.283997ZM57.0135 3.768C57.0135 4.35554 57.1835 4.91925 57.3422 5.36008C57.502 5.80408 57.7226 6.3078 57.8955 6.72553C58.2769 7.64732 58.5495 8.44449 58.5495 9.208H61.5495C61.5495 7.79551 61.0541 6.51268 60.6675 5.57847C60.4564 5.0682 60.293 4.69992 60.1648 4.34392C60.0355 3.98475 60.0135 3.82045 60.0135 3.768H57.0135ZM58.5495 9.208V22.264H61.5495V9.208H58.5495ZM58.5495 22.264C58.5495 27.6473 60.2351 31.3985 63.1755 33.7546C66.052 36.0595 69.8756 36.82 73.7455 36.82V33.82C70.1914 33.82 67.167 33.1085 65.0515 31.4134C62.9999 29.7695 61.5495 26.9927 61.5495 22.264H58.5495ZM73.7455 36.82C78.4093 36.82 82.0162 35.2872 84.4399 32.5756C86.8394 29.8911 87.9175 26.2326 87.9175 22.264H84.9175C84.9175 25.7194 83.9797 28.5889 82.2031 30.5764C80.4508 32.5368 77.7217 33.82 73.7455 33.82V36.82ZM108.098 9.336L106.632 9.65761L106.636 9.67525L106.641 9.6928L108.098 9.336ZM116.93 7.8L118.324 7.24706L118.316 7.22798L118.308 7.20912L116.93 7.8ZM100.609 20.92L100.174 22.3554L100.187 22.3594L100.201 22.3632L100.609 20.92ZM97.9855 26.104L99.4726 25.9076L97.9855 26.104ZM92.8015 21.624L92.7017 20.1273L92.6886 20.1283L92.8015 21.624ZM89.4095 28.728L88.0119 29.2728L88.0215 29.2975L88.032 29.3217L89.4095 28.728ZM107.201 15.16L107.591 13.7114L107.59 13.7111L107.201 15.16ZM100.637 8.952C100.637 7.68351 101.551 6.42 103.553 6.42V3.42C99.9242 3.42 97.6375 5.99649 97.6375 8.952H100.637ZM103.553 6.42C104.579 6.42 106.162 7.51676 106.632 9.65761L109.563 9.01439C108.881 5.90723 106.368 3.42 103.553 3.42V6.42ZM106.641 9.6928C107.518 13.2764 109.888 15.572 112.962 15.572V12.572C111.683 12.572 110.213 11.6676 109.554 8.97919L106.641 9.6928ZM112.962 15.572C115.049 15.572 116.945 14.7877 118.037 13.1663C119.134 11.5384 119.185 9.41956 118.324 7.24706L115.535 8.35294C116.146 9.89244 115.941 10.9096 115.55 11.4897C115.154 12.0763 114.33 12.572 112.962 12.572V15.572ZM118.308 7.20912C116.455 2.88504 111.15 0.0279999 104.77 0.0279999V3.028C110.421 3.028 114.332 5.54696 115.551 8.39088L118.308 7.20912ZM104.77 0.0279999C100.59 0.0279999 96.7825 1.00229 93.9718 2.92116C91.1186 4.86901 89.3175 7.78831 89.3175 11.448H92.3175C92.3175 8.89969 93.5244 6.85898 95.6632 5.39884C97.8445 3.90971 101.013 3.028 104.77 3.028V0.0279999ZM89.3175 11.448C89.3175 14.3664 90.5707 16.6932 92.5806 18.4808C94.5459 20.2288 97.2261 21.4611 100.174 22.3554L101.045 19.4846C98.2969 18.6509 96.0811 17.5792 94.5744 16.2392C93.1123 14.9388 92.3175 13.3936 92.3175 11.448H89.3175ZM100.201 22.3632C103.828 23.3903 106.17 24.2122 107.596 25.0352C108.294 25.4381 108.678 25.7894 108.887 26.08C109.074 26.3405 109.158 26.6 109.158 26.936H112.158C112.158 25.992 111.889 25.1155 111.322 24.328C110.777 23.5706 110.005 22.9619 109.095 22.4368C107.305 21.4038 104.623 20.4977 101.018 19.4768L100.201 22.3632ZM109.158 26.936C109.158 27.7412 108.733 28.4409 107.879 29.0039C107.004 29.5817 105.795 29.916 104.642 29.916V32.916C106.304 32.916 108.103 32.4503 109.532 31.5081C110.982 30.5511 112.158 29.0108 112.158 26.936H109.158ZM104.642 29.916C101.925 29.916 99.7974 28.3666 99.4726 25.9076L96.4984 26.3004C97.0696 30.6254 100.83 32.916 104.642 32.916V29.916ZM99.4726 25.9076C99.2184 23.9832 98.5297 22.4017 97.2554 21.3591C95.981 20.3164 94.3697 20.0161 92.7017 20.1273L92.9013 23.1207C94.1133 23.0399 94.87 23.2836 95.3556 23.6809C95.8413 24.0783 96.3046 24.8328 96.4984 26.3004L99.4726 25.9076ZM92.6886 20.1283C90.5179 20.2921 88.793 21.3997 87.9282 23.2091C87.0917 24.959 87.173 27.1208 88.0119 29.2728L90.8071 28.1832C90.174 26.5592 90.2553 25.297 90.6348 24.5029C90.986 23.7683 91.6931 23.2119 92.9144 23.1197L92.6886 20.1283ZM88.032 29.3217C89.9769 33.8338 96.0527 36.884 103.682 36.884V33.884C96.5903 33.884 92.0421 31.0462 90.787 28.1343L88.032 29.3217ZM103.682 36.884C108.068 36.884 112.271 36.0413 115.435 34.2297C118.648 32.3897 120.862 29.4846 120.862 25.528H117.862C117.862 28.1633 116.459 30.1863 113.944 31.6263C111.38 33.0947 107.743 33.884 103.682 33.884V36.884ZM120.862 25.528C120.862 22.8816 119.75 20.4721 117.497 18.4579C115.288 16.4817 111.999 14.8957 107.591 13.7114L106.812 16.6086C110.98 17.7283 113.771 19.1503 115.498 20.6941C117.181 22.1999 117.862 23.8224 117.862 25.528H120.862ZM107.59 13.7111C104.553 12.8972 102.787 12.0531 101.797 11.2354C100.898 10.4933 100.637 9.77966 100.637 8.952H97.6375C97.6375 10.6843 98.3051 12.2427 99.8864 13.5486C101.376 14.7789 103.642 15.7588 106.813 16.6089L107.59 13.7111ZM148.282 31.16L149.749 31.4732L149.751 31.4655L149.752 31.4578L148.282 31.16ZM148.41 23.48L147.936 24.903L147.957 24.9102L147.979 24.9167L148.41 23.48ZM144.442 26.36L145.718 27.1482L145.723 27.14L145.728 27.1317L144.442 26.36ZM138.682 31.096L138.824 32.5893L138.831 32.5886L138.682 31.096ZM131.194 22.52L129.714 22.2734L129.694 22.3959V22.52H131.194ZM138.17 22.648L136.804 23.2687L136.809 23.2797L138.17 22.648ZM140.474 12.024L140.568 10.5269L140.521 10.524H140.474V12.024ZM138.17 14.584L139.523 15.2312L139.531 15.2145L139.539 15.1976L138.17 14.584ZM131.194 15.16H129.694V15.2895L129.716 15.417L131.194 15.16ZM138.106 5.688L138.255 4.19543L138.25 4.19492L138.106 5.688ZM142.906 9.848L141.658 10.68L141.67 10.6986L141.683 10.7168L142.906 9.848ZM146.874 12.472L146.443 11.0353L146.409 11.0456L146.375 11.0575L146.874 12.472ZM146.682 5.048L145.223 5.39728L145.225 5.403L146.682 5.048ZM120.862 27.576C120.862 28.3395 120.589 29.1367 120.208 30.0585C120.035 30.4762 119.815 30.9799 119.655 31.4239C119.496 31.8647 119.326 32.4285 119.326 33.016H122.326C122.326 32.9635 122.348 32.7992 122.477 32.4401C122.605 32.0841 122.769 31.7158 122.98 31.2055C123.367 30.2713 123.862 28.9885 123.862 27.576H120.862ZM119.326 33.016C119.326 34.7345 120.794 35.5678 121.896 35.935C123.105 36.3381 124.701 36.5 126.458 36.5V33.5C124.823 33.5 123.603 33.3419 122.844 33.089C121.978 32.8002 122.326 32.6415 122.326 33.016H119.326ZM126.458 36.5H140.602V33.5H126.458V36.5ZM140.602 36.5C141.428 36.5 142.188 36.6021 143.038 36.6926C143.825 36.7763 144.761 36.8602 145.658 36.6896C146.638 36.5032 147.546 36.0223 148.276 35.0831C148.96 34.2019 149.423 32.9998 149.749 31.4732L146.815 30.8468C146.533 32.1682 146.196 32.8701 145.906 33.2429C145.662 33.5577 145.422 33.6808 145.098 33.7424C144.691 33.8198 144.167 33.7957 143.356 33.7094C142.608 33.6298 141.632 33.5 140.602 33.5V36.5ZM149.752 31.4578C150.255 28.973 150.637 27.0224 150.708 25.6453C150.743 24.9631 150.716 24.2411 150.479 23.6066C150.206 22.8732 149.659 22.2886 148.841 22.0433L147.979 24.9167C147.928 24.9015 147.843 24.8618 147.764 24.7838C147.689 24.7101 147.666 24.6494 147.669 24.6554C147.688 24.7069 147.741 24.9329 147.712 25.4907C147.655 26.5937 147.333 28.291 146.812 30.8622L149.752 31.4578ZM148.884 22.057C147.803 21.6965 146.711 21.9033 145.724 22.5773C144.807 23.2035 143.969 24.2328 143.156 25.5883L145.728 27.1317C146.451 25.9272 147.021 25.3245 147.416 25.0547C147.741 24.8327 147.865 24.8795 147.936 24.903L148.884 22.057ZM143.166 25.5718C142.523 26.6124 141.807 27.6008 141 28.3465C140.199 29.0869 139.386 29.5181 138.533 29.6034L138.831 32.5886C140.538 32.4179 141.933 31.5691 143.036 30.5495C144.133 29.5352 145.017 28.2836 145.718 27.1482L143.166 25.5718ZM138.54 29.6028C135.909 29.8533 134.393 29.637 133.586 29.2388C133.223 29.06 133.032 28.8585 132.916 28.6513C132.792 28.4302 132.694 28.0963 132.694 27.576H129.694C129.694 28.4637 129.86 29.3378 130.3 30.1207C130.748 30.9175 131.421 31.516 132.258 31.9292C133.851 32.715 136.079 32.8507 138.824 32.5892L138.54 29.6028ZM132.694 27.576V22.52H129.694V27.576H132.694ZM132.674 22.7666C132.738 22.3797 132.864 22.2665 133.006 22.1837C133.242 22.0462 133.724 21.908 134.65 21.908V18.908C133.528 18.908 132.41 19.0578 131.494 19.5923C130.484 20.1814 129.906 21.1243 129.714 22.2734L132.674 22.7666ZM134.65 21.908C135.306 21.908 135.723 22.0571 136.01 22.2481C136.301 22.4422 136.571 22.7561 136.804 23.2687L139.536 22.0273C139.129 21.1319 138.535 20.3258 137.674 19.7519C136.809 19.1749 135.786 18.908 134.65 18.908V21.908ZM136.809 23.2797C137.27 24.2716 137.778 25.0532 138.344 25.6075C138.908 26.1602 139.632 26.58 140.474 26.58V23.58C140.676 23.58 140.664 23.6798 140.444 23.4645C140.226 23.2508 139.902 22.8164 139.531 22.0163L136.809 23.2797ZM140.474 26.58C141.085 26.58 141.702 26.3719 142.213 25.8826C142.677 25.4384 142.962 24.8503 143.153 24.2414C143.53 23.0398 143.702 21.2269 143.702 18.616H140.702C140.702 21.1891 140.522 22.6082 140.291 23.3426C140.178 23.7017 140.095 23.7576 140.139 23.7154C140.23 23.6281 140.375 23.58 140.474 23.58V26.58ZM143.702 18.616C143.702 15.9724 143.53 14.1471 143.155 12.9332C142.965 12.3166 142.685 11.7331 142.239 11.2849C141.752 10.7959 141.163 10.5641 140.568 10.5269L140.38 13.5211C140.297 13.5158 140.18 13.4681 140.113 13.4011C140.087 13.3749 140.175 13.4514 140.289 13.8188C140.522 14.5729 140.702 16.0116 140.702 18.616H143.702ZM140.474 10.524C139.587 10.524 138.854 11.0046 138.312 11.5688C137.758 12.1453 137.257 12.953 136.801 13.9704L139.539 15.1976C139.915 14.359 140.246 13.8867 140.476 13.6472C140.718 13.3954 140.721 13.524 140.474 13.524V10.524ZM136.817 13.9368C136.537 14.5213 136.278 14.8031 136.031 14.9622C135.785 15.1203 135.39 15.26 134.65 15.26V18.26C135.766 18.26 136.779 18.0477 137.653 17.4858C138.526 16.9249 139.099 16.1187 139.523 15.2312L136.817 13.9368ZM134.65 15.26C134.145 15.26 133.744 15.2517 133.413 15.2227C133.078 15.1934 132.885 15.1481 132.777 15.1075C132.687 15.074 132.698 15.0602 132.723 15.0914C132.744 15.1166 132.704 15.0872 132.672 14.903L129.716 15.417C129.812 15.9688 130.012 16.5074 130.385 16.9706C130.762 17.4398 131.237 17.734 131.723 17.9165C132.598 18.2446 133.681 18.26 134.65 18.26V15.26ZM132.694 15.16V9.208H129.694V15.16H132.694ZM132.694 9.208C132.694 8.63331 132.778 8.2664 132.888 8.02951C132.984 7.82245 133.125 7.65679 133.387 7.51077C134.02 7.15888 135.339 6.92824 137.962 7.18108L138.25 4.19492C135.561 3.93576 133.424 4.05711 131.929 4.88923C131.127 5.3352 130.536 5.96955 130.166 6.76649C129.81 7.5336 129.694 8.37469 129.694 9.208H132.694ZM137.957 7.18055C138.838 7.26867 139.363 7.58996 139.848 8.10296C140.436 8.72355 140.87 9.49853 141.658 10.68L144.154 9.01595C143.534 8.08546 142.848 6.90844 142.028 6.04103C141.105 5.06604 139.934 4.36333 138.255 4.19544L137.957 7.18055ZM141.683 10.7168C142.583 11.9825 143.441 12.9291 144.335 13.488C145.321 14.1041 146.355 14.246 147.373 13.8865L146.375 11.0575C146.305 11.082 146.219 11.1279 145.925 10.944C145.539 10.7029 144.957 10.1455 144.129 8.97919L141.683 10.7168ZM147.305 13.9087C148.064 13.6811 148.63 13.1614 148.937 12.4362C149.204 11.8048 149.244 11.0904 149.212 10.4171C149.148 9.06413 148.741 7.16234 148.139 4.693L145.225 5.403C145.839 7.92566 146.168 9.54386 146.216 10.5589C146.227 10.7988 146.221 10.9742 146.206 11.0986C146.192 11.2242 146.172 11.2706 146.173 11.2678C146.206 11.1906 146.324 11.0709 146.443 11.0353L147.305 13.9087ZM148.141 4.69872C147.848 3.47699 147.463 2.47546 146.893 1.71842C146.278 0.902368 145.508 0.448859 144.642 0.250047C143.86 0.0706282 143.034 0.110011 142.323 0.158468C141.553 0.21094 140.822 0.283997 139.962 0.283997V3.284C140.958 3.284 141.859 3.19705 142.527 3.15153C143.254 3.10198 143.672 3.10537 143.97 3.17395C144.184 3.22314 144.33 3.30163 144.497 3.52358C144.709 3.80453 144.972 4.347 145.223 5.39728L148.141 4.69872ZM139.962 0.283997H126.458V3.284H139.962V0.283997ZM126.458 0.283997C124.701 0.283997 123.105 0.445855 121.896 0.848973C120.794 1.21618 119.326 2.04948 119.326 3.768H122.326C122.326 4.14252 121.978 3.98382 122.844 3.69502C123.603 3.44214 124.823 3.284 126.458 3.284V0.283997ZM119.326 3.768C119.326 4.35554 119.496 4.91925 119.655 5.36008C119.815 5.80408 120.035 6.3078 120.208 6.72553C120.589 7.64732 120.862 8.44449 120.862 9.208H123.862C123.862 7.79551 123.367 6.51268 122.98 5.57847C122.769 5.0682 122.605 4.69992 122.477 4.34392C122.348 3.98475 122.326 3.82045 122.326 3.768H119.326ZM120.862 9.208V27.576H123.862V9.208H120.862ZM158.003 15.16L159.178 14.2279L156.503 10.8548V15.16H158.003ZM171.315 31.992L172.482 31.0495L172.477 31.0432L171.315 31.992ZM172.211 18.936L171.03 19.8605L173.711 23.2865V18.936H172.211ZM161.843 5.688L163.024 4.76352L163.019 4.75638L161.843 5.688ZM155.059 0.283997C153.603 0.283997 152.227 0.448334 151.159 0.882149C150.088 1.31703 148.951 2.21424 148.951 3.768H151.951C151.951 3.97776 151.742 3.88297 152.287 3.66185C152.835 3.43966 153.763 3.284 155.059 3.284V0.283997ZM148.951 3.768C148.951 4.45359 149.22 5.08045 149.437 5.51744C149.66 5.96908 149.97 6.48338 150.203 6.89379C150.739 7.83511 151.063 8.56038 151.063 9.208H154.063C154.063 7.67962 153.331 6.32489 152.811 5.41021C152.516 4.89262 152.298 4.53491 152.125 4.18656C151.946 3.82355 151.951 3.7224 151.951 3.768H148.951ZM151.063 9.208V27.576H154.063V9.208H151.063ZM151.063 27.576C151.063 28.2236 150.739 28.9489 150.203 29.8902C149.97 30.3006 149.66 30.8149 149.437 31.2666C149.22 31.7036 148.951 32.3304 148.951 33.016H151.951C151.951 33.0616 151.946 32.9604 152.125 32.5974C152.298 32.2491 152.516 31.8914 152.811 31.3738C153.331 30.4591 154.063 29.1044 154.063 27.576H151.063ZM148.951 33.016C148.951 34.5698 150.088 35.467 151.159 35.9018C152.227 36.3357 153.603 36.5 155.059 36.5V33.5C153.763 33.5 152.835 33.3443 152.287 33.1222C151.742 32.901 151.951 32.8062 151.951 33.016H148.951ZM155.059 36.5H155.507V33.5H155.059V36.5ZM155.507 36.5C156.963 36.5 158.339 36.3357 159.407 35.9018C160.478 35.467 161.615 34.5698 161.615 33.016H158.615C158.615 32.8062 158.824 32.901 158.279 33.1222C157.731 33.3443 156.803 33.5 155.507 33.5V36.5ZM161.615 33.016C161.615 32.3304 161.346 31.7036 161.129 31.2666C160.906 30.8149 160.596 30.3006 160.363 29.8902C159.827 28.9489 159.503 28.2236 159.503 27.576H156.503C156.503 29.1044 157.235 30.4591 157.755 31.3738C158.05 31.8914 158.268 32.2491 158.441 32.5974C158.62 32.9604 158.615 33.0616 158.615 33.016H161.615ZM159.503 27.576V15.16H156.503V27.576H159.503ZM156.828 16.0921C161.223 21.6338 167.01 29.0916 170.153 32.9408L172.477 31.0432C169.348 27.2124 163.615 19.8222 159.178 14.2279L156.828 16.0921ZM170.148 32.9345C170.795 33.7356 171.49 34.6026 172.233 35.2507C173.001 35.9202 173.98 36.5 175.219 36.5V33.5C174.986 33.5 174.685 33.4078 174.205 32.9893C173.7 32.5494 173.179 31.9124 172.482 31.0495L170.148 32.9345ZM175.219 36.5C176.597 36.5 177.662 35.8257 178.317 34.8169C178.927 33.8769 179.151 32.7116 179.151 31.608H176.151C176.151 32.3604 175.991 32.8911 175.801 33.1831C175.656 33.4063 175.505 33.5 175.219 33.5V36.5ZM179.151 31.608V9.208H176.151V31.608H179.151ZM179.151 9.208C179.151 8.54776 179.471 7.8152 179.988 6.87662C180.215 6.46567 180.515 5.95215 180.731 5.50109C180.942 5.0631 181.199 4.44281 181.199 3.768H178.199C178.199 3.73318 178.2 3.8409 178.027 4.2029C177.859 4.55185 177.647 4.91033 177.362 5.42738C176.855 6.3448 176.151 7.69224 176.151 9.208H179.151ZM181.199 3.768C181.199 2.23922 180.111 1.33277 179.033 0.886144C177.975 0.447881 176.61 0.283997 175.155 0.283997V3.284C176.452 3.284 177.359 3.44011 177.885 3.65785C178.139 3.76303 178.222 3.8492 178.232 3.86073C178.233 3.8626 178.221 3.84857 178.211 3.82C178.206 3.80686 178.203 3.79439 178.201 3.78384C178.199 3.7734 178.199 3.76767 178.199 3.768H181.199ZM175.155 0.283997H174.707V3.284H175.155V0.283997ZM174.707 0.283997C173.251 0.283997 171.875 0.448334 170.807 0.882149C169.736 1.31703 168.599 2.21424 168.599 3.768H171.599C171.599 3.97776 171.39 3.88297 171.935 3.66185C172.483 3.43966 173.411 3.284 174.707 3.284V0.283997ZM168.599 3.768C168.599 4.45359 168.868 5.08045 169.085 5.51744C169.308 5.96908 169.618 6.48338 169.851 6.89379C170.387 7.83511 170.711 8.56038 170.711 9.208H173.711C173.711 7.67962 172.979 6.32489 172.459 5.41021C172.164 4.89262 171.946 4.53491 171.773 4.18656C171.594 3.82355 171.599 3.7224 171.599 3.768H168.599ZM170.711 9.208V18.936H173.711V9.208H170.711ZM173.392 18.0115L163.024 4.76353L160.662 6.61246L171.03 19.8605L173.392 18.0115ZM163.019 4.75638C161.658 3.03929 160.527 1.85678 159.248 1.15078C157.911 0.413026 156.578 0.283997 155.059 0.283997V3.284C156.42 3.284 157.135 3.41097 157.798 3.77721C158.519 4.17521 159.34 4.94471 160.667 6.61962L163.019 4.75638ZM200.454 23.096H201.954V23.0477L201.951 22.9994L200.454 23.096ZM192.262 23.096L190.763 23.0476L190.762 23.0718V23.096H192.262ZM195.783 21.908H196.87V18.908H195.783V21.908ZM196.87 21.908C197.968 21.908 198.432 22.0844 198.621 22.2218C198.718 22.2924 198.911 22.4636 198.958 23.1926L201.951 22.9994C201.87 21.7444 201.455 20.5716 200.384 19.7942C199.405 19.0836 198.141 18.908 196.87 18.908V21.908ZM198.954 23.096V27.576H201.954V23.096H198.954ZM198.954 27.576C198.954 28.3395 198.682 29.1367 198.3 30.0585C198.128 30.4762 197.907 30.9799 197.747 31.4239C197.588 31.8647 197.419 32.4285 197.419 33.016H200.419C200.419 32.9635 200.441 32.7992 200.57 32.4401C200.698 32.0841 200.861 31.7158 201.073 31.2055C201.459 30.2713 201.954 28.9885 201.954 27.576H198.954ZM197.419 33.016C197.419 34.7345 198.887 35.5678 199.988 35.935C201.198 36.3381 202.793 36.5 204.551 36.5V33.5C202.916 33.5 201.695 33.3419 200.937 33.089C200.07 32.8002 200.419 32.6415 200.419 33.016H197.419ZM204.551 36.5H205.191V33.5H204.551V36.5ZM205.191 36.5C206.919 36.5 208.512 36.3375 209.725 35.9362C210.812 35.5768 212.323 34.7508 212.323 33.016H209.323C209.323 32.6252 209.681 32.7912 208.784 33.0878C208.013 33.3425 206.79 33.5 205.191 33.5V36.5ZM212.323 33.016C212.323 32.4285 212.153 31.8647 211.994 31.4239C211.834 30.9799 211.613 30.4762 211.441 30.0585C211.059 29.1367 210.786 28.3395 210.786 27.576H207.786C207.786 28.9885 208.282 30.2713 208.668 31.2055C208.88 31.7158 209.043 32.0841 209.171 32.4401C209.3 32.7993 209.323 32.9635 209.323 33.016H212.323ZM210.786 27.576V9.208H207.786V27.576H210.786ZM210.786 9.208C210.786 8.44449 211.059 7.64732 211.441 6.72553C211.613 6.3078 211.834 5.80408 211.994 5.36008C212.153 4.91925 212.323 4.35554 212.323 3.768H209.323C209.323 3.82045 209.3 3.98475 209.171 4.34392C209.043 4.69992 208.88 5.0682 208.668 5.57847C208.282 6.51268 207.786 7.79551 207.786 9.208H210.786ZM212.323 3.768C212.323 2.03316 210.812 1.20717 209.725 0.847829C208.512 0.446476 206.919 0.283997 205.191 0.283997V3.284C206.79 3.284 208.013 3.44152 208.784 3.69617C209.681 3.99283 209.323 4.15884 209.323 3.768H212.323ZM205.191 0.283997H204.551V3.284H205.191V0.283997ZM204.551 0.283997C202.793 0.283997 201.198 0.445855 199.988 0.848973C198.887 1.21618 197.419 2.04948 197.419 3.768H200.419C200.419 4.14252 200.07 3.98382 200.937 3.69502C201.695 3.44214 202.916 3.284 204.551 3.284V0.283997ZM197.419 3.768C197.419 4.35554 197.588 4.91925 197.747 5.36008C197.907 5.80408 198.128 6.3078 198.3 6.72553C198.682 7.64732 198.954 8.44449 198.954 9.208H201.954C201.954 7.79551 201.459 6.51268 201.073 5.57847C200.861 5.0682 200.698 4.69992 200.57 4.34392C200.441 3.98475 200.419 3.82045 200.419 3.768H197.419ZM198.954 9.208V14.136H201.954V9.208H198.954ZM198.954 14.136V14.264H201.954V14.136H198.954ZM198.954 14.264C198.954 14.7418 198.895 14.9663 198.859 15.0543C198.844 15.0897 198.838 15.0926 198.847 15.0819C198.857 15.0706 198.863 15.0688 198.85 15.0758C198.809 15.0994 198.668 15.1614 198.306 15.2045C197.949 15.2471 197.49 15.26 196.87 15.26V18.26C197.499 18.26 198.112 18.2489 198.661 18.1835C199.205 18.1186 199.804 17.9886 200.347 17.6762C201.631 16.9371 201.954 15.6102 201.954 14.264H198.954ZM196.87 15.26H195.783V18.26H196.87V15.26ZM195.783 15.26C195.196 15.26 194.759 15.2471 194.416 15.2051C194.069 15.1627 193.928 15.1018 193.883 15.0758C193.878 15.073 193.88 15.0859 193.861 15.0405C193.824 14.9542 193.762 14.7329 193.762 14.264H190.762C190.762 15.6381 191.117 16.9459 192.386 17.6762C192.925 17.9862 193.516 18.1173 194.051 18.1829C194.59 18.2489 195.185 18.26 195.783 18.26V15.26ZM193.762 14.264V14.008H190.762V14.264H193.762ZM193.762 14.008V9.208H190.762V14.008H193.762ZM193.762 9.208C193.762 8.4576 194.042 7.66909 194.44 6.74574C194.62 6.32912 194.85 5.8238 195.017 5.37868C195.182 4.93768 195.363 4.36654 195.363 3.768H192.363C192.363 3.80946 192.343 3.96631 192.208 4.32531C192.075 4.6802 191.905 5.04688 191.685 5.55825C191.283 6.49091 190.762 7.7824 190.762 9.208H193.762ZM195.363 3.768C195.363 2.03316 193.852 1.20717 192.765 0.847829C191.552 0.446476 189.959 0.283997 188.23 0.283997V3.284C189.83 3.284 191.053 3.44152 191.824 3.69617C192.721 3.99283 192.363 4.15884 192.363 3.768H195.363ZM188.23 0.283997H187.59V3.284H188.23V0.283997ZM187.59 0.283997C185.832 0.283997 184.224 0.44614 183.003 0.846709C181.909 1.2055 180.395 2.03015 180.395 3.768H183.395C183.395 4.16185 183.032 3.9945 183.938 3.69729C184.717 3.44185 185.957 3.284 187.59 3.284V0.283997ZM180.395 3.768C180.395 4.36654 180.575 4.93769 180.74 5.37868C180.907 5.8238 181.137 6.32912 181.317 6.74574C181.715 7.66909 181.995 8.4576 181.995 9.208H184.995C184.995 7.7824 184.474 6.49091 184.072 5.55825C183.852 5.04688 183.682 4.6802 183.549 4.32531C183.414 3.96631 183.395 3.80946 183.395 3.768H180.395ZM181.995 9.208V27.576H184.995V9.208H181.995ZM181.995 27.576C181.995 28.3264 181.715 29.1149 181.317 30.0383C181.137 30.4549 180.907 30.9602 180.74 31.4053C180.575 31.8463 180.395 32.4175 180.395 33.016H183.395C183.395 32.9745 183.414 32.8177 183.549 32.4587C183.682 32.1038 183.852 31.7371 184.072 31.2257C184.474 30.2931 184.995 29.0016 184.995 27.576H181.995ZM180.395 33.016C180.395 34.7538 181.909 35.5785 183.003 35.9373C184.224 36.3379 185.832 36.5 187.59 36.5V33.5C185.957 33.5 184.717 33.3421 183.938 33.0867C183.032 32.7895 183.395 32.6222 183.395 33.016H180.395ZM187.59 36.5H188.23V33.5H187.59V36.5ZM188.23 36.5C189.959 36.5 191.552 36.3375 192.765 35.9362C193.852 35.5768 195.363 34.7508 195.363 33.016H192.363C192.363 32.6252 192.721 32.7912 191.824 33.0878C191.053 33.3425 189.83 33.5 188.23 33.5V36.5ZM195.363 33.016C195.363 32.4175 195.182 31.8463 195.017 31.4053C194.85 30.9602 194.62 30.4549 194.44 30.0383C194.042 29.1149 193.762 28.3264 193.762 27.576H190.762C190.762 29.0016 191.283 30.2931 191.685 31.2257C191.905 31.7371 192.075 32.1038 192.208 32.4587C192.343 32.8177 192.363 32.9745 192.363 33.016H195.363ZM193.762 27.576V23.608H190.762V27.576H193.762ZM193.762 23.608V23.416H190.762V23.608H193.762ZM193.762 23.416V23.096H190.762V23.416H193.762ZM193.762 23.1444C193.783 22.4738 193.972 22.3051 194.08 22.2275C194.287 22.0795 194.763 21.908 195.783 21.908V18.908C194.562 18.908 193.31 19.0885 192.333 19.7885C191.257 20.5589 190.806 21.7342 190.763 23.0476L193.762 23.1444ZM230.695 31.864L230.332 30.4088L230.324 30.4108L230.695 31.864ZM222.887 14.008L224.384 13.899L224.383 13.893L222.887 14.008ZM225.191 4.984L225.568 6.436L225.575 6.43406L225.583 6.43204L225.191 4.984ZM232.423 17.336L233.895 17.0443L233.895 17.0442L232.423 17.336ZM228.008 -0.0360031C223.353 -0.0360031 219.022 1.65286 215.853 4.85725C212.678 8.06769 210.764 12.703 210.764 18.424H213.764C213.764 13.393 215.433 9.54831 217.986 6.96675C220.545 4.37914 224.086 2.964 228.008 2.964V-0.0360031ZM210.764 18.424C210.764 24.1149 212.679 28.7486 215.852 31.9653C219.018 35.1762 223.349 36.884 228.008 36.884V33.884C224.09 33.884 220.549 32.4558 217.987 29.8587C215.432 27.2674 213.764 23.4211 213.764 18.424H210.764ZM228.008 36.884C232.666 36.884 236.997 35.1762 240.163 31.9653C243.336 28.7486 245.251 24.1149 245.251 18.424H242.251C242.251 23.4211 240.583 27.2674 238.028 29.8587C235.466 32.4558 231.925 33.884 228.008 33.884V36.884ZM245.251 18.424C245.251 12.703 243.337 8.06769 240.162 4.85725C236.993 1.65286 232.662 -0.0360031 228.008 -0.0360031V2.964C231.929 2.964 235.47 4.37914 238.029 6.96675C240.582 9.54831 242.251 13.393 242.251 18.424H245.251ZM230.324 30.4108C230.515 30.3618 230.276 30.5481 229.523 29.7206C228.863 28.9948 228.115 27.8013 227.389 26.2033C225.945 23.0259 224.723 18.5597 224.384 13.899L221.391 14.117C221.756 19.1203 223.062 23.9341 224.658 27.4447C225.452 29.1907 226.352 30.6932 227.304 31.7394C228.163 32.6839 229.5 33.7182 231.067 33.3172L230.324 30.4108ZM224.383 13.893C224.199 11.5004 224.346 9.53336 224.7 8.16793C224.877 7.4835 225.089 7.0158 225.286 6.72914C225.481 6.44408 225.594 6.42926 225.568 6.436L224.815 3.532C223.925 3.76274 223.27 4.36392 222.811 5.03286C222.354 5.7002 222.026 6.5245 221.795 7.41607C221.333 9.20264 221.192 11.5236 221.392 14.123L224.383 13.893ZM225.583 6.43204C225.584 6.43185 225.584 6.43171 225.585 6.43157C225.587 6.43144 225.59 6.43113 225.596 6.43134C225.608 6.43172 225.636 6.43425 225.683 6.44864C225.783 6.47897 225.951 6.55693 226.181 6.73674C226.65 7.10394 227.224 7.77287 227.833 8.78774C229.042 10.8024 230.208 13.8767 230.952 17.6278L233.895 17.0442C233.103 13.0513 231.837 9.62957 230.406 7.24426C229.695 6.05913 228.897 5.05206 228.028 4.37326C227.17 3.70259 226.033 3.20263 224.8 3.53595L225.583 6.43204ZM230.952 17.6277C231.664 21.2167 231.791 24.5406 231.487 26.9825C231.334 28.211 231.081 29.1397 230.79 29.7504C230.479 30.4041 230.262 30.4262 230.332 30.4088L231.059 33.3192C232.281 33.0138 233.04 32.0039 233.499 31.0396C233.978 30.0323 234.289 28.757 234.464 27.3535C234.816 24.5314 234.655 20.8793 233.895 17.0443L230.952 17.6277ZM272.345 31.16L273.811 31.4732L273.813 31.4655L273.815 31.4578L272.345 31.16ZM272.473 23.48L271.973 24.8945L272.016 24.9097L272.06 24.9223L272.473 23.48ZM268.505 26.36L267.233 25.565L267.222 25.5821L267.212 25.5995L268.505 26.36ZM262.745 31.096L262.879 32.59L262.886 32.5893L262.894 32.5886L262.745 31.096ZM244.924 9.208V27.576H247.924V9.208H244.924ZM244.924 27.576C244.924 28.3395 244.652 29.1367 244.27 30.0585C244.098 30.4762 243.877 30.9799 243.717 31.4239C243.558 31.8647 243.389 32.4285 243.389 33.016H246.389C246.389 32.9635 246.411 32.7992 246.54 32.4401C246.668 32.0841 246.831 31.7158 247.043 31.2055C247.429 30.2713 247.924 28.9885 247.924 27.576H244.924ZM243.389 33.016C243.389 34.7508 244.899 35.5768 245.986 35.9362C247.199 36.3375 248.792 36.5 250.521 36.5V33.5C248.921 33.5 247.698 33.3425 246.927 33.0878C246.03 32.7912 246.389 32.6252 246.389 33.016H243.389ZM250.521 36.5H264.664V33.5H250.521V36.5ZM264.664 36.5C265.491 36.5 266.251 36.6021 267.101 36.6926C267.888 36.7763 268.824 36.8602 269.721 36.6896C270.701 36.5032 271.609 36.0223 272.338 35.0831C273.023 34.2019 273.486 32.9998 273.811 31.4732L270.878 30.8468C270.595 32.1682 270.258 32.8701 269.969 33.2429C269.724 33.5577 269.484 33.6808 269.16 33.7424C268.753 33.8198 268.229 33.7957 267.418 33.7094C266.67 33.6298 265.694 33.5 264.664 33.5V36.5ZM273.815 31.4578C274.316 28.9839 274.714 27.0289 274.794 25.6549C274.834 24.9736 274.811 24.2413 274.565 23.5958C274.277 22.8413 273.704 22.272 272.885 22.0377L272.06 24.9223C272.025 24.9122 271.946 24.8796 271.866 24.8041C271.829 24.7696 271.803 24.7357 271.785 24.7082C271.768 24.6816 271.762 24.6653 271.762 24.6662C271.778 24.7067 271.831 24.9224 271.799 25.481C271.735 26.5871 271.397 28.2801 270.874 30.8622L273.815 31.4578ZM272.972 22.0655C271.89 21.6838 270.803 21.9161 269.835 22.5773C268.928 23.1961 268.077 24.2143 267.233 25.565L269.776 27.155C270.532 25.9457 271.121 25.3319 271.526 25.0547C271.87 24.8199 271.967 24.8922 271.973 24.8945L272.972 22.0655ZM267.212 25.5995C266.613 26.617 265.901 27.5999 265.091 28.3423C264.284 29.0822 263.454 29.5176 262.595 29.6034L262.894 32.5886C264.595 32.4184 266.005 31.5738 267.118 30.5537C268.228 29.5361 269.116 28.279 269.797 27.1205L267.212 25.5995ZM262.61 29.602C260.117 29.8258 258.604 29.7145 257.751 29.3493C257.38 29.1902 257.189 29.0046 257.07 28.8031C256.94 28.5826 256.82 28.2131 256.82 27.576H253.82C253.82 28.5709 254.005 29.5134 254.487 30.3289C254.98 31.1634 255.709 31.7378 256.57 32.1067C258.181 32.7975 260.38 32.8142 262.879 32.59L262.61 29.602ZM256.82 27.576V9.208H253.82V27.576H256.82ZM256.82 9.208C256.82 8.43133 257.086 7.62533 257.451 6.70494C257.617 6.28603 257.828 5.78402 257.98 5.3412C258.132 4.90069 258.293 4.34453 258.293 3.768H255.292C255.292 3.83147 255.269 4.0033 255.145 4.36279C255.021 4.71997 254.864 5.08997 254.662 5.59906C254.291 6.53467 253.82 7.80867 253.82 9.208H256.82ZM258.293 3.768C258.293 2.05255 256.829 1.21795 255.734 0.850143C254.532 0.446193 252.952 0.283997 251.225 0.283997V3.284C252.825 3.284 254.029 3.4418 254.779 3.69385C255.636 3.98204 255.292 4.13945 255.292 3.768H258.293ZM251.225 0.283997H250.585V3.284H251.225V0.283997ZM250.585 0.283997C248.827 0.283997 247.232 0.445855 246.022 0.848973C244.921 1.21618 243.452 2.04948 243.452 3.768H246.452C246.452 4.14252 246.104 3.98382 246.971 3.69502C247.729 3.44214 248.95 3.284 250.585 3.284V0.283997ZM243.452 3.768C243.452 4.34453 243.613 4.90069 243.765 5.3412C243.917 5.78402 244.128 6.28603 244.294 6.70494C244.659 7.62533 244.924 8.43133 244.924 9.208H247.924C247.924 7.80867 247.454 6.53467 247.083 5.59906C246.881 5.08997 246.724 4.71997 246.6 4.36279C246.476 4.0033 246.452 3.83147 246.452 3.768H243.452ZM301.97 31.16L303.436 31.4732L303.438 31.4655L303.44 31.4578L301.97 31.16ZM302.098 23.48L301.623 24.903L301.645 24.9102L301.666 24.9167L302.098 23.48ZM298.13 26.36L299.406 27.1482L299.411 27.14L299.416 27.1317L298.13 26.36ZM292.37 31.096L292.512 32.5893L292.519 32.5886L292.37 31.096ZM284.882 22.52L283.402 22.2734L283.382 22.3959V22.52H284.882ZM291.858 22.648L290.492 23.2687L290.497 23.2797L291.858 22.648ZM294.161 12.024L294.255 10.5269L294.208 10.524H294.161V12.024ZM291.858 14.584L293.211 15.2312L293.219 15.2145L293.226 15.1976L291.858 14.584ZM284.882 15.16H283.382V15.2895L283.404 15.417L284.882 15.16ZM291.793 5.688L291.943 4.19543L291.937 4.19492L291.793 5.688ZM296.594 9.848L295.345 10.68L295.358 10.6986L295.371 10.7168L296.594 9.848ZM300.561 12.472L300.13 11.0353L300.096 11.0456L300.062 11.0575L300.561 12.472ZM300.37 5.048L298.911 5.39728L298.912 5.403L300.37 5.048ZM274.549 27.576C274.549 28.3395 274.277 29.1367 273.895 30.0585C273.723 30.4762 273.502 30.9799 273.342 31.4239C273.183 31.8647 273.013 32.4285 273.013 33.016H276.013C276.013 32.9635 276.036 32.7992 276.165 32.4401C276.293 32.0841 276.456 31.7158 276.668 31.2055C277.054 30.2713 277.549 28.9885 277.549 27.576H274.549ZM273.013 33.016C273.013 34.7345 274.482 35.5678 275.583 35.935C276.793 36.3381 278.388 36.5 280.146 36.5V33.5C278.511 33.5 277.29 33.3419 276.532 33.089C275.665 32.8002 276.013 32.6415 276.013 33.016H273.013ZM280.146 36.5H294.289V33.5H280.146V36.5ZM294.289 36.5C295.116 36.5 295.876 36.6021 296.726 36.6926C297.513 36.7763 298.449 36.8602 299.346 36.6896C300.326 36.5032 301.234 36.0223 301.963 35.0831C302.648 34.2019 303.111 32.9998 303.436 31.4732L300.503 30.8468C300.22 32.1682 299.883 32.8701 299.594 33.2429C299.349 33.5577 299.109 33.6808 298.785 33.7424C298.378 33.8198 297.854 33.7957 297.043 33.7094C296.295 33.6298 295.319 33.5 294.289 33.5V36.5ZM303.44 31.4578C303.943 28.973 304.324 27.0224 304.396 25.6453C304.431 24.9631 304.404 24.2411 304.167 23.6066C303.893 22.8732 303.346 22.2886 302.529 22.0433L301.666 24.9167C301.616 24.9015 301.531 24.8618 301.451 24.7838C301.376 24.7101 301.354 24.6494 301.356 24.6554C301.375 24.7069 301.428 24.9329 301.4 25.4907C301.343 26.5937 301.02 28.291 300.499 30.8622L303.44 31.4578ZM302.572 22.057C301.49 21.6965 300.398 21.9033 299.412 22.5773C298.495 23.2035 297.657 24.2328 296.843 25.5883L299.416 27.1317C300.138 25.9272 300.708 25.3245 301.103 25.0547C301.429 24.8327 301.553 24.8795 301.623 24.903L302.572 22.057ZM296.853 25.5718C296.211 26.6124 295.494 27.6008 294.687 28.3465C293.886 29.0869 293.074 29.5181 292.22 29.6034L292.519 32.5886C294.225 32.4179 295.621 31.5691 296.724 30.5495C297.821 29.5352 298.704 28.2836 299.406 27.1482L296.853 25.5718ZM292.227 29.6028C289.596 29.8533 288.08 29.637 287.273 29.2388C286.911 29.06 286.72 28.8585 286.603 28.6513C286.479 28.4302 286.382 28.0963 286.382 27.576H283.382C283.382 28.4637 283.548 29.3378 283.988 30.1207C284.435 30.9175 285.108 31.516 285.946 31.9292C287.539 32.715 289.767 32.8507 292.512 32.5892L292.227 29.6028ZM286.382 27.576V22.52H283.382V27.576H286.382ZM286.361 22.7666C286.426 22.3797 286.551 22.2665 286.693 22.1837C286.929 22.0462 287.412 21.908 288.337 21.908V18.908C287.215 18.908 286.098 19.0578 285.182 19.5923C284.172 20.1814 283.593 21.1243 283.402 22.2734L286.361 22.7666ZM288.337 21.908C288.994 21.908 289.411 22.0571 289.697 22.2481C289.989 22.4422 290.259 22.7561 290.492 23.2687L293.223 22.0273C292.816 21.1319 292.222 20.3258 291.362 19.7519C290.496 19.1749 289.473 18.908 288.337 18.908V21.908ZM290.497 23.2797C290.958 24.2716 291.466 25.0532 292.032 25.6075C292.596 26.1602 293.32 26.58 294.161 26.58V23.58C294.363 23.58 294.351 23.6798 294.131 23.4645C293.913 23.2508 293.589 22.8164 293.218 22.0163L290.497 23.2797ZM294.161 26.58C294.772 26.58 295.39 26.3719 295.901 25.8826C296.365 25.4384 296.649 24.8503 296.841 24.2414C297.218 23.0398 297.389 21.2269 297.389 18.616H294.389C294.389 21.1891 294.209 22.6082 293.978 23.3426C293.866 23.7017 293.782 23.7576 293.826 23.7154C293.917 23.6281 294.063 23.58 294.161 23.58V26.58ZM297.389 18.616C297.389 15.9724 297.218 14.1471 296.843 12.9332C296.652 12.3166 296.373 11.7331 295.927 11.2849C295.44 10.7959 294.851 10.5641 294.255 10.5269L294.068 13.5211C293.984 13.5158 293.867 13.4681 293.8 13.4011C293.774 13.3749 293.863 13.4514 293.976 13.8188C294.209 14.5729 294.389 16.0116 294.389 18.616H297.389ZM294.161 10.524C293.275 10.524 292.542 11.0046 292 11.5688C291.446 12.1453 290.945 12.953 290.489 13.9704L293.226 15.1976C293.602 14.359 293.933 13.8867 294.163 13.6472C294.405 13.3954 294.408 13.524 294.161 13.524V10.524ZM290.504 13.9368C290.225 14.5213 289.966 14.8031 289.718 14.9622C289.473 15.1203 289.078 15.26 288.337 15.26V18.26C289.453 18.26 290.466 18.0477 291.341 17.4858C292.213 16.9249 292.786 16.1187 293.211 15.2312L290.504 13.9368ZM288.337 15.26C287.832 15.26 287.431 15.2517 287.1 15.2227C286.765 15.1934 286.572 15.1481 286.464 15.1075C286.375 15.074 286.386 15.0602 286.411 15.0914C286.431 15.1166 286.391 15.0872 286.359 14.903L283.404 15.417C283.5 15.9688 283.7 16.5074 284.072 16.9706C284.449 17.4398 284.924 17.734 285.411 17.9165C286.286 18.2446 287.368 18.26 288.337 18.26V15.26ZM286.382 15.16V9.208H283.382V15.16H286.382ZM286.382 9.208C286.382 8.63331 286.465 8.2664 286.575 8.02951C286.671 7.82245 286.812 7.65679 287.075 7.51077C287.707 7.15888 289.026 6.92824 291.65 7.18108L291.937 4.19492C289.249 3.93576 287.112 4.05711 285.616 4.88923C284.815 5.3352 284.224 5.96955 283.854 6.76649C283.498 7.5336 283.382 8.37469 283.382 9.208H286.382ZM291.644 7.18055C292.525 7.26867 293.051 7.58996 293.536 8.10296C294.123 8.72355 294.558 9.49853 295.345 10.68L297.842 9.01595C297.221 8.08546 296.536 6.90844 295.715 6.04103C294.792 5.06604 293.622 4.36333 291.943 4.19544L291.644 7.18055ZM295.371 10.7168C296.27 11.9825 297.128 12.9291 298.022 13.488C299.008 14.1041 300.042 14.246 301.061 13.8865L300.062 11.0575C299.993 11.082 299.907 11.1279 299.612 10.944C299.227 10.7029 298.645 10.1455 297.816 8.97919L295.371 10.7168ZM300.993 13.9087C301.751 13.6811 302.317 13.1614 302.624 12.4362C302.891 11.8048 302.932 11.0904 302.9 10.4171C302.836 9.06413 302.428 7.16234 301.827 4.693L298.912 5.403C299.527 7.92566 299.855 9.54386 299.903 10.5589C299.915 10.7988 299.908 10.9742 299.894 11.0986C299.879 11.2242 299.86 11.2706 299.861 11.2678C299.894 11.1906 300.012 11.0709 300.13 11.0353L300.993 13.9087ZM301.828 4.69872C301.536 3.47699 301.151 2.47546 300.581 1.71842C299.966 0.902368 299.195 0.448859 298.329 0.250047C297.548 0.0706282 296.722 0.110011 296.01 0.158468C295.241 0.21094 294.51 0.283997 293.65 0.283997V3.284C294.645 3.284 295.546 3.19705 296.214 3.15153C296.941 3.10198 297.359 3.10537 297.658 3.17395C297.872 3.22314 298.017 3.30163 298.184 3.52358C298.396 3.80453 298.659 4.347 298.911 5.39728L301.828 4.69872ZM293.65 0.283997H280.146V3.284H293.65V0.283997ZM280.146 0.283997C278.388 0.283997 276.793 0.445855 275.583 0.848973C274.482 1.21618 273.013 2.04948 273.013 3.768H276.013C276.013 4.14252 275.665 3.98382 276.532 3.69502C277.29 3.44214 278.511 3.284 280.146 3.284V0.283997ZM273.013 3.768C273.013 4.35554 273.183 4.91925 273.342 5.36008C273.502 5.80408 273.723 6.3078 273.895 6.72553C274.277 7.64732 274.549 8.44449 274.549 9.208H277.549C277.549 7.79551 277.054 6.51268 276.668 5.57847C276.456 5.0682 276.293 4.69992 276.165 4.34392C276.036 3.98475 276.013 3.82045 276.013 3.768H273.013ZM274.549 9.208V27.576H277.549V9.208H274.549ZM317.066 22.648V21.148H317.026L316.986 21.1502L317.066 22.648ZM323.339 30.392L324.634 29.6362L324.628 29.6254L323.339 30.392ZM338.507 32.632L337.027 32.3854L337.019 32.4339L337.014 32.4827L338.507 32.632ZM336.906 30.904L336.363 32.302L336.371 32.3053L336.38 32.3085L336.906 30.904ZM332.491 27.704L333.659 26.763L333.651 26.7533L333.643 26.7437L332.491 27.704ZM327.626 20.92L327.001 19.5568L325.394 20.2945L326.384 21.7598L327.626 20.92ZM316.491 0.283997H309.707V3.284H316.491V0.283997ZM309.707 0.283997C307.979 0.283997 306.399 0.446193 305.197 0.850143C304.102 1.21795 302.638 2.05255 302.638 3.768H305.638C305.638 4.13945 305.295 3.98204 306.152 3.69385C306.902 3.4418 308.106 3.284 309.707 3.284V0.283997ZM302.638 3.768C302.638 4.34453 302.799 4.90069 302.951 5.3412C303.103 5.78402 303.314 6.28603 303.48 6.70494C303.845 7.62533 304.111 8.43133 304.111 9.208H307.111C307.111 7.80867 306.64 6.53467 306.269 5.59906C306.067 5.08997 305.91 4.71997 305.786 4.36279C305.662 4.0033 305.638 3.83147 305.638 3.768H302.638ZM304.111 9.208V27.576H307.111V9.208H304.111ZM304.111 27.576C304.111 28.3527 303.845 29.1587 303.48 30.0791C303.314 30.498 303.103 31 302.951 31.4428C302.799 31.8833 302.638 32.4395 302.638 33.016H305.638C305.638 32.9525 305.662 32.7807 305.786 32.4212C305.91 32.064 306.067 31.694 306.269 31.1849C306.64 30.2493 307.111 28.9753 307.111 27.576H304.111ZM302.638 33.016C302.638 34.7314 304.102 35.566 305.197 35.9339C306.399 36.3378 307.979 36.5 309.707 36.5V33.5C308.106 33.5 306.902 33.3422 306.152 33.0901C305.295 32.802 305.638 32.6446 305.638 33.016H302.638ZM309.707 36.5H310.346V33.5H309.707V36.5ZM310.346 36.5C312.104 36.5 313.699 36.3381 314.909 35.935C316.01 35.5678 317.479 34.7345 317.479 33.016H314.479C314.479 32.6415 314.827 32.8002 313.96 33.089C313.202 33.3419 311.981 33.5 310.346 33.5V36.5ZM317.479 33.016C317.479 32.4285 317.309 31.8647 317.15 31.4239C316.99 30.9799 316.769 30.4762 316.597 30.0585C316.215 29.1367 315.943 28.3395 315.943 27.576H312.943C312.943 28.9885 313.438 30.2713 313.824 31.2055C314.036 31.7158 314.199 32.0841 314.327 32.4401C314.456 32.7992 314.479 32.9635 314.479 33.016H317.479ZM315.943 27.576V25.592H312.943V27.576H315.943ZM315.943 25.592C315.943 25.057 315.96 24.7147 315.999 24.4773C316.037 24.2504 316.076 24.241 316.036 24.2916C315.983 24.3577 315.952 24.3358 316.107 24.2872C316.287 24.2306 316.602 24.1753 317.147 24.1458L316.986 21.1502C315.816 21.2134 314.512 21.3985 313.697 22.4124C313.297 22.911 313.124 23.4776 313.04 23.9867C312.957 24.4853 312.943 25.039 312.943 25.592H315.943ZM317.066 24.148C317.095 24.148 317.226 24.1519 317.509 24.3734C317.806 24.6057 318.173 25.0031 318.632 25.6301C319.561 26.8983 320.609 28.7372 322.049 31.1586L324.628 29.6254C323.252 27.3108 322.092 25.2777 321.053 23.8579C320.528 23.1409 319.971 22.4903 319.358 22.0106C318.731 21.5201 317.966 21.148 317.066 21.148V24.148ZM322.043 31.1478C324.169 34.7935 327.814 36.5 332.618 36.5V33.5C328.591 33.5 326.092 32.1345 324.634 29.6362L322.043 31.1478ZM332.618 36.5C334.628 36.5 336.294 36.2138 337.533 35.6695C338.728 35.1452 339.856 34.2114 339.999 32.7813L337.014 32.4827C337.029 32.3326 337.101 32.5828 336.328 32.9225C335.599 33.2422 334.385 33.5 332.618 33.5V36.5ZM339.986 32.8786C340.149 31.9036 339.74 31.1038 339.199 30.5633C338.697 30.0613 338.042 29.7277 337.433 29.4995L336.38 32.3085C336.576 32.382 336.734 32.4566 336.857 32.5273C336.981 32.5991 337.048 32.6552 337.078 32.6847C337.106 32.7128 337.079 32.6957 337.053 32.626C337.022 32.5458 337.015 32.4564 337.027 32.3854L339.986 32.8786ZM337.45 29.506C336.833 29.2661 336.341 29.0937 335.759 28.7288C335.19 28.3727 334.496 27.8027 333.659 26.763L331.322 28.645C332.341 29.9093 333.279 30.7153 334.166 31.2712C335.04 31.8183 335.828 32.0939 336.363 32.302L337.45 29.506ZM333.643 26.7437C332.103 24.8956 330.487 22.475 328.869 20.0802L326.384 21.7598C327.966 24.101 329.678 26.6724 331.338 28.6643L333.643 26.7437ZM328.252 22.2832C330.419 21.2885 332.084 19.9149 333.2 18.1791C334.316 16.4432 334.823 14.4389 334.823 12.28H331.823C331.823 13.9611 331.433 15.3808 330.677 16.5569C329.921 17.7331 328.738 18.7595 327.001 19.5568L328.252 22.2832ZM334.823 12.28C334.823 8.59863 333.169 5.5059 329.952 3.40079C326.811 1.34605 322.273 0.283997 316.491 0.283997V3.284C321.972 3.284 325.85 4.30194 328.309 5.9112C330.692 7.4701 331.823 9.62537 331.823 12.28H334.823ZM317.13 17.436C316.705 17.436 316.424 17.4063 316.238 17.3635C316.062 17.3228 316.032 17.284 316.051 17.3005C316.125 17.3645 315.943 17.3095 315.943 16.44H312.943C312.943 17.5545 313.144 18.7475 314.082 19.5635C314.96 20.3282 316.137 20.436 317.13 20.436V17.436ZM315.943 16.44V9.208H312.943V16.44H315.943ZM315.943 9.208C315.943 8.49302 315.959 7.99515 316.006 7.63181C316.053 7.25965 316.115 7.17539 316.102 7.1956C316.052 7.27038 315.983 7.28591 316.047 7.26584C316.167 7.22874 316.422 7.188 316.939 7.188V4.188C315.828 4.188 314.418 4.30295 313.599 5.5404C313.242 6.0806 313.1 6.69635 313.029 7.25419C312.958 7.82085 312.943 8.48298 312.943 9.208H315.943ZM316.939 7.188C319.306 7.188 320.709 7.9533 321.538 8.88497C322.397 9.85126 322.798 11.1773 322.798 12.536H325.798C325.798 10.6307 325.24 8.53274 323.779 6.89103C322.288 5.2147 320.011 4.188 316.939 4.188V7.188ZM322.798 12.536C322.798 13.7926 322.36 14.9998 321.491 15.8861C320.638 16.7563 319.254 17.436 317.13 17.436V20.436C319.935 20.436 322.135 19.5157 323.634 17.9859C325.117 16.4722 325.798 14.4794 325.798 12.536H322.798Z" fill="#EBEBEB"/>
</g>
<defs>
<filter id="filter0_d_1_5" x="0.127998" y="0.503998" width="340.507" height="39.352" filterUnits="userSpaceOnUse" color-interpolation-filters="sRGB">
<feFlood flood-opacity="0" result="BackgroundImageFix"/>
<feColorMatrix in="SourceAlpha" type="matrix" values="0 0 0 0 0 0 0 0 0 0 0 0 0 0 0 0 0 0 127 0" result="hardAlpha"/>
<feOffset dx="2" dy="3"/>
<feComposite in2="hardAlpha" operator="out"/>
<feColorMatrix type="matrix" values="0 0 0 0 0.304167 0 0 0 0 0.70775 0 0 0 0 1 0 0 0 1 0"/>
<feBlend mode="normal" in2="BackgroundImageFix" result="effect1_dropShadow_1_5"/>
<feBlend mode="normal" in="SourceGraphic" in2="effect1_dropShadow_1_5" result="shape"/>
</filter>
</defs>
</svg>
