<?xml version="1.0" standalone="no"?>
<!DOCTYPE svg PUBLIC "-//W3C//DTD SVG 20010904//EN"
 "http://www.w3.org/TR/2001/REC-SVG-20010904/DTD/svg10.dtd">
<svg version="1.0" xmlns="http://www.w3.org/2000/svg"
 width="252.000000pt" height="252.000000pt" viewBox="0 0 252.000000 252.000000"
 preserveAspectRatio="xMidYMid meet">
<metadata>
Created by potrace 1.14, written by Peter Selinger 2001-2017
</metadata>
<g transform="translate(0.000000,252.000000) scale(0.100000,-0.100000)"
fill="#000000" stroke="none">
<path d="M220 2503 c-83 -29 -139 -79 -176 -158 l-24 -50 0 -1025 c0 -671 4
-1038 10 -1062 19 -68 71 -130 139 -166 l63 -32 1033 0 c955 0 1037 2 1080 18
56 21 115 74 147 133 l23 44 0 1055 0 1055 -23 42 c-29 55 -69 96 -123 125
l-44 23 -1045 2 c-575 1 -1052 -1 -1060 -4z"/>
</g>
</svg>
